<svg width="261" height="85" viewBox="0 0 261 85" fill="none" xmlns="http://www.w3.org/2000/svg">
<path fill-rule="evenodd" clip-rule="evenodd" d="M238.693 7.08473H231.608V0H226.886V7.08473H189.11V0H184.388V7.08473H177.307C170.797 7.08473 165.5 12.3811 165.5 18.8912V42H170.222V30.6933H245.774V42H250.5V18.8876C250.496 12.3777 245.199 7.08473 238.693 7.08473ZM245.774 25.9716H170.222V18.8868C170.222 14.9794 173.399 11.8021 177.307 11.8021H184.392V16.5238H189.11V11.8063H226.886V16.528H231.608V11.8063H238.693C242.596 11.8063 245.774 14.9794 245.774 18.8867L245.774 25.9716Z" fill="#353839"/>
<path d="M177.307 85C171.763 85 167.1 81.1597 165.837 76H170.805C171.895 78.5092 174.399 80.2691 177.307 80.2691H228.5V85H177.307Z" fill="#353839"/>
<path d="M1.3125 72V67.8984L4.94531 67.1953V42.7031L1.3125 42V37.875H27.7969V47.0859H22.5469L22.2422 43.1484H11.7891V51.7266H23.3438V57H11.7891V66.75H22.8047L23.1094 62.6719H28.3125V72H1.3125Z" fill="#353839"/>
<path d="M40.9688 72L33.3047 51.1875L30.5625 50.7656V46.6406H42.8672V50.7422L40.1953 51.2109L44.0156 62.7188L44.6016 64.6875H44.7422L45.3984 62.7188L49.5938 51.2344L46.4766 50.7422V46.6406H58.7578V50.7656L55.9453 51.2344L47.9297 72H40.9688Z" fill="#353839"/>
<path d="M72.3984 72.4922C69.9766 72.4922 67.8594 71.9609 66.0469 70.8984C64.2344 69.8203 62.8281 68.3438 61.8281 66.4688C60.8438 64.5938 60.3516 62.4531 60.3516 60.0469V59.1094C60.3516 56.5938 60.8203 54.3672 61.7578 52.4297C62.6953 50.4766 64.0156 48.9453 65.7188 47.8359C67.4375 46.7109 69.4609 46.1562 71.7891 46.1719C74.0859 46.1719 76.0156 46.625 77.5781 47.5312C79.1406 48.4375 80.3281 49.7422 81.1406 51.4453C81.9531 53.1484 82.3594 55.2109 82.3594 57.6328V61.3594H67.4531L67.4062 61.5C67.5 62.6094 67.7734 63.6016 68.2266 64.4766C68.6953 65.3359 69.3516 66.0156 70.1953 66.5156C71.0391 67 72.0625 67.2422 73.2656 67.2422C74.5156 67.2422 75.6797 67.0859 76.7578 66.7734C77.8516 66.4453 78.9141 65.9688 79.9453 65.3438L81.7969 69.5625C80.75 70.4062 79.4297 71.1094 77.8359 71.6719C76.2578 72.2188 74.4453 72.4922 72.3984 72.4922ZM67.5 56.8359H75.9609V56.2266C75.9609 55.1953 75.8203 54.3125 75.5391 53.5781C75.2734 52.8281 74.8359 52.25 74.2266 51.8438C73.6328 51.4375 72.8594 51.2344 71.9062 51.2344C71 51.2344 70.2344 51.4766 69.6094 51.9609C68.9844 52.4297 68.4922 53.0781 68.1328 53.9062C67.7891 54.7344 67.5547 55.6719 67.4297 56.7188L67.5 56.8359Z" fill="#353839"/>
<path d="M85.2656 72V67.8984L88.5469 67.1953V51.4688L84.9141 50.7656V46.6406H94.9219L95.2266 50.2734C96.0703 48.9766 97.1094 47.9688 98.3438 47.25C99.5938 46.5312 101.016 46.1719 102.609 46.1719C105.125 46.1719 107.094 46.9766 108.516 48.5859C109.938 50.1953 110.648 52.7188 110.648 56.1562V67.1953L113.93 67.8984V72H100.852V67.8984L103.781 67.1953V56.1797C103.781 54.4766 103.445 53.2734 102.773 52.5703C102.102 51.8516 101.102 51.4922 99.7734 51.4922C98.7891 51.4922 97.9297 51.7031 97.1953 52.125C96.4766 52.5312 95.875 53.1172 95.3906 53.8828V67.1953L98.1562 67.8984V72H85.2656Z" fill="#353839"/>
<path d="M125.297 72.4922C122.938 72.4922 121.117 71.8438 119.836 70.5469C118.57 69.25 117.938 67.1953 117.938 64.3828V51.4453H114.445V46.6406H117.938V40.4297H124.758V46.6406H129.422V51.4453H124.758V64.3594C124.758 65.3438 124.961 66.0469 125.367 66.4688C125.789 66.8906 126.359 67.1016 127.078 67.1016C127.469 67.1016 127.875 67.0781 128.297 67.0312C128.734 66.9688 129.109 66.9062 129.422 66.8438L130.008 71.7891C129.305 71.9922 128.539 72.1562 127.711 72.2812C126.898 72.4219 126.094 72.4922 125.297 72.4922Z" fill="#353839"/>
<path d="M143.344 72.4922C140.672 72.4922 138.57 71.6484 137.039 69.9609C135.523 68.2578 134.766 65.6172 134.766 62.0391V51.4688L131.977 50.7656V46.6406H141.609V62.0859C141.609 63.8984 141.922 65.2031 142.547 66C143.188 66.7812 144.148 67.1719 145.43 67.1719C146.445 67.1719 147.344 66.9766 148.125 66.5859C148.906 66.1797 149.547 65.6094 150.047 64.875V51.4688L147.023 50.7656V46.6406H156.891V67.1953L159.938 67.8984V72H150.891L150.422 68.7891C149.625 69.9766 148.625 70.8906 147.422 71.5312C146.219 72.1719 144.859 72.4922 143.344 72.4922Z" fill="#353839"/>
<path d="M170.977 72.4922C168.461 72.4922 166.461 71.8203 164.977 70.4766C163.492 69.1172 162.75 67.2734 162.75 64.9453C162.75 63.3516 163.18 61.9531 164.039 60.75C164.914 59.5469 166.195 58.6016 167.883 57.9141C169.586 57.2266 171.68 56.8828 174.164 56.8828H177.516V55.0078C177.516 53.7891 177.156 52.8047 176.438 52.0547C175.734 51.2891 174.672 50.9062 173.25 50.9062C172.516 50.9062 171.859 51 171.281 51.1875C170.703 51.3594 170.172 51.6094 169.688 51.9375L169.148 55.2891H164.227L164.133 48.7031C165.461 47.9531 166.898 47.3438 168.445 46.875C169.992 46.4062 171.719 46.1719 173.625 46.1719C176.938 46.1719 179.555 46.9453 181.477 48.4922C183.398 50.0234 184.359 52.2188 184.359 55.0781V65.5312C184.359 65.875 184.359 66.2188 184.359 66.5625C184.375 66.8906 184.406 67.2109 184.453 67.5234L187.102 67.8984V72H178.617C178.445 71.5625 178.273 71.0938 178.102 70.5938C177.93 70.0938 177.805 69.5938 177.727 69.0938C176.914 70.125 175.953 70.9531 174.844 71.5781C173.75 72.1875 172.461 72.4922 170.977 72.4922ZM172.805 67.4297C173.758 67.4297 174.664 67.2188 175.523 66.7969C176.383 66.3594 177.047 65.7891 177.516 65.0859V61.0781H174.141C172.641 61.0781 171.5 61.4219 170.719 62.1094C169.953 62.7969 169.57 63.625 169.57 64.5938C169.57 65.5 169.852 66.2031 170.414 66.7031C170.992 67.1875 171.789 67.4297 172.805 67.4297Z" fill="#353839"/>
<path d="M189.586 72V67.8984L195.352 67.1953V44.0859H189.516V40.1719L202.172 37.875V67.1953L207.938 67.8984V72H189.586Z" fill="#353839"/>
<path d="M210.82 72V67.8984L216.586 67.1953V44.0859H210.75V40.1719L223.406 37.875V67.1953L229.172 67.8984V72H210.82Z" fill="#353839"/>
<path d="M239.039 82.2422C238.445 82.2422 237.812 82.1875 237.141 82.0781C236.484 81.9844 235.859 81.8516 235.266 81.6797L236.039 76.6641C236.336 76.7266 236.664 76.7734 237.023 76.8047C237.383 76.8359 237.695 76.8516 237.961 76.8516C238.945 76.8516 239.797 76.5938 240.516 76.0781C241.234 75.5625 241.758 74.8203 242.086 73.8516L242.648 72.2812L234.164 51.2109L231.047 50.7656V46.6406H244.5V50.7656L241.406 51.2344L245.883 63.7969H246.023L250.734 51.1875L247.711 50.7656V46.6406H260.25V50.7656L257.391 51.1641L247.711 75.7734C247.242 76.9453 246.641 78.0156 245.906 78.9844C245.188 79.9688 244.266 80.7578 243.141 81.3516C242.031 81.9453 240.664 82.2422 239.039 82.2422Z" fill="#353839"/>
</svg>
